<?xml version="1.0" standalone="no"?>
<!DOCTYPE svg PUBLIC "-//W3C//DTD SVG 20010904//EN"
 "http://www.w3.org/TR/2001/REC-SVG-20010904/DTD/svg10.dtd">
<svg version="1.0" xmlns="http://www.w3.org/2000/svg"
 width="700.000000pt" height="700.000000pt" viewBox="0 0 700.000000 700.000000"
 preserveAspectRatio="xMidYMid meet">
<metadata>
Created by potrace 1.14, written by Peter Selinger 2001-2017
</metadata>
<g transform="translate(0.000000,700.000000) scale(0.100000,-0.100000)"
fill="#000000" stroke="none">
<path d="M3488 6303 c-15 -10 -32 -29 -37 -43 -6 -15 -10 -150 -9 -340 l1
-315 32 -32 c41 -41 81 -41 128 -2 l32 27 0 331 0 331 -26 26 c-33 33 -85 40
-121 17z"/>
<path d="M1230 5257 c-32 -16 -59 -69 -52 -104 4 -19 82 -104 253 -276 213
-214 252 -249 283 -254 45 -7 82 11 102 50 31 58 18 76 -235 330 -130 131
-248 245 -263 253 -33 17 -55 18 -88 1z"/>
<path d="M5665 5251 c-38 -24 -478 -468 -494 -498 -22 -43 2 -103 48 -123 65
-26 80 -15 333 238 130 130 243 250 251 266 19 36 7 82 -28 114 -32 27 -70 28
-110 3z"/>
<path d="M3360 5043 c-105 -12 -150 -19 -182 -29 -9 -3 -25 -7 -36 -9 -98 -18
-303 -108 -428 -186 -166 -104 -330 -257 -441 -413 -134 -189 -247 -462 -269
-654 -3 -31 -9 -61 -13 -67 -3 -5 -6 -356 -7 -779 l-1 -769 -74 -21 c-98 -28
-180 -77 -250 -147 -55 -55 -129 -166 -129 -193 0 -7 -3 -16 -7 -20 -7 -7 -8
-7 -23 -81 -56 -265 109 -543 378 -637 l67 -23 1570 -2 c1097 -2 1582 0 1609
8 21 6 46 12 55 14 30 6 116 48 156 75 96 66 183 184 221 300 28 85 26 255 -4
342 -69 200 -230 336 -452 382 l-25 5 -1 703 c0 786 -4 875 -43 1018 -33 121
-44 154 -71 221 -150 363 -430 658 -780 823 -269 126 -541 172 -820 139z"/>
</g>
</svg>
